<svg width="24" height="24" viewBox="0 0 24 24" fill="none" xmlns="http://www.w3.org/2000/svg">
<path fill-rule="evenodd" clip-rule="evenodd" d="M9.61115 2.3501H14.389C15.4761 2.35009 16.3468 2.35008 17.0506 2.40758C17.7732 2.46663 18.3988 2.59076 18.9747 2.88417C19.8966 3.35395 20.6462 4.10355 21.116 5.02554C21.4094 5.60139 21.5336 6.22695 21.5926 6.94962C21.6501 7.65339 21.6501 8.52407 21.6501 9.61115V14.3891C21.6501 15.4761 21.6501 16.3468 21.5926 17.0506C21.5336 17.7732 21.4094 18.3988 21.116 18.9747C20.6462 19.8966 19.8966 20.6462 18.9747 21.116C18.3988 21.4094 17.7732 21.5336 17.0506 21.5926C16.3468 21.6501 15.4761 21.6501 14.3891 21.6501H9.61115C8.52407 21.6501 7.65339 21.6501 6.94962 21.5926C6.22695 21.5336 5.60139 21.4094 5.02554 21.116C4.10355 20.6462 3.35395 19.8966 2.88417 18.9747C2.59076 18.3988 2.46663 17.7732 2.40758 17.0506C2.35008 16.3468 2.35009 15.4761 2.3501 14.389V9.61115C2.35009 8.52407 2.35008 7.65339 2.40758 6.94962C2.46663 6.22695 2.59076 5.60139 2.88417 5.02554C3.35395 4.10355 4.10355 3.35395 5.02554 2.88417C5.60139 2.59076 6.22695 2.46663 6.94962 2.40758C7.65339 2.35008 8.52407 2.35009 9.61115 2.3501ZM7.09619 4.20161C6.48484 4.25156 6.12253 4.34541 5.84273 4.48798C5.25942 4.78519 4.78519 5.25942 4.48798 5.84273C4.34541 6.12253 4.25156 6.48484 4.20161 7.09619C4.1508 7.71805 4.1501 8.51514 4.1501 9.6501V14.3501C4.1501 15.4851 4.1508 16.2821 4.20161 16.904C4.25156 17.5154 4.34541 17.8777 4.48798 18.1575C4.78519 18.7408 5.25942 19.215 5.84273 19.5122C6.12253 19.6548 6.48484 19.7486 7.09619 19.7986C7.71805 19.8494 8.51514 19.8501 9.6501 19.8501H14.3501C15.4851 19.8501 16.2821 19.8494 16.904 19.7986C17.5154 19.7486 17.8777 19.6548 18.1575 19.5122C18.7408 19.215 19.215 18.7408 19.5122 18.1575C19.6548 17.8777 19.7486 17.5154 19.7986 16.904C19.8494 16.2821 19.8501 15.4851 19.8501 14.3501V9.6501C19.8501 8.51514 19.8494 7.71805 19.7986 7.09619C19.7486 6.48484 19.6548 6.12253 19.5122 5.84273C19.215 5.25942 18.7408 4.78519 18.1575 4.48798C17.8777 4.34541 17.5154 4.25156 16.904 4.20161C16.2821 4.1508 15.4851 4.1501 14.3501 4.1501H9.6501C8.51514 4.1501 7.71805 4.1508 7.09619 4.20161Z" fill="#BDBDBD"/>
</svg>
