<svg width="24" height="24" viewBox="0 0 24 24" fill="none" xmlns="http://www.w3.org/2000/svg">
<path fill-rule="evenodd" clip-rule="evenodd" d="M9.61115 2.3501H14.389C15.4761 2.35009 16.3468 2.35008 17.0506 2.40758C17.7732 2.46663 18.3988 2.59076 18.9747 2.88417C19.8966 3.35395 20.6462 4.10355 21.116 5.02554C21.4094 5.60139 21.5336 6.22695 21.5926 6.94962C21.6501 7.65339 21.6501 8.52407 21.6501 9.61115V14.3891C21.6501 15.4761 21.6501 16.3468 21.5926 17.0506C21.5336 17.7732 21.4094 18.3988 21.116 18.9747C20.6462 19.8966 19.8966 20.6462 18.9747 21.116C18.3988 21.4094 17.7732 21.5336 17.0506 21.5926C16.3468 21.6501 15.4761 21.6501 14.3891 21.6501H9.61115C8.52407 21.6501 7.65339 21.6501 6.94962 21.5926C6.22695 21.5336 5.60139 21.4094 5.02554 21.116C4.10355 20.6462 3.35395 19.8966 2.88417 18.9747C2.59076 18.3988 2.46663 17.7732 2.40758 17.0506C2.35008 16.3468 2.35009 15.4761 2.3501 14.389V9.61115C2.35009 8.52407 2.35008 7.65339 2.40758 6.94962C2.46663 6.22695 2.59076 5.60139 2.88417 5.02554C3.35395 4.10355 4.10355 3.35395 5.02554 2.88417C5.60139 2.59076 6.22695 2.46663 6.94962 2.40758C7.65339 2.35008 8.52407 2.35009 9.61115 2.3501Z" fill="#0FBE6C"/>
<path d="M17.7933 8.19526C18.0689 8.45561 18.0689 8.87772 17.7933 9.13807L10.7344 15.8047C10.4588 16.0651 10.0118 16.0651 9.73616 15.8047L6.20675 12.4714C5.93108 12.2111 5.93108 11.7889 6.20675 11.5286C6.48241 11.2682 6.92935 11.2682 7.20502 11.5286L10.2353 14.3905L16.795 8.19526C17.0706 7.93491 17.5176 7.93491 17.7933 8.19526Z" fill="white"/>
</svg>
