<?xml version="1.0" encoding="utf-8"?>
<!-- Uploaded to: SVG Repo, www.svgrepo.com, Generator: SVG Repo Mixer Tools -->
<svg width="800px" height="800px" viewBox="0 0 32 32" xmlns="http://www.w3.org/2000/svg" xmlns:xlink="http://www.w3.org/1999/xlink">
  <defs>
    <clipPath id="clip-drink">
      <rect width="32" height="32"/>
    </clipPath>
  </defs>
  <g id="drink" clip-path="url(#clip-drink)">
    <g id="Group_2764" data-name="Group 2764" transform="translate(-104 -208)">
      <g id="Group_2754" data-name="Group 2754">
        <g id="Group_2753" data-name="Group 2753">
          <g id="Group_2752" data-name="Group 2752">
            <path id="Path_3912" data-name="Path 3912" d="M125.062,239.625H114.938a1,1,0,0,1-1-.915L112.4,220.591a1,1,0,1,1,1.994-.17l1.462,17.2h8.288l1.462-17.2a.992.992,0,0,1,1.082-.912,1,1,0,0,1,.912,1.082l-1.541,18.119A1,1,0,0,1,125.062,239.625Z" fill="#344952"/>
          </g>
        </g>
      </g>
      <g id="Group_2757" data-name="Group 2757">
        <g id="Group_2756" data-name="Group 2756">
          <g id="Group_2755" data-name="Group 2755">
            <path id="Path_3913" data-name="Path 3913" d="M120,217.881a1.039,1.039,0,0,1-.183-.017,1,1,0,0,1-.8-1.165l.892-4.821a1,1,0,0,1,.542-.715l5.463-2.685a1,1,0,1,1,.883,1.794l-5.012,2.464-.8,4.327A1,1,0,0,1,120,217.881Z" fill="#344952"/>
          </g>
        </g>
      </g>
      <g id="Group_2760" data-name="Group 2760">
        <g id="Group_2759" data-name="Group 2759">
          <g id="Group_2758" data-name="Group 2758">
            <path id="Path_3914" data-name="Path 3914" d="M127.567,221.43H112.433a1,1,0,0,1-1-1v-3.549a1,1,0,0,1,1-1h15.134a1,1,0,0,1,1,1v3.549A1,1,0,0,1,127.567,221.43Zm-14.134-2h13.134v-1.549H113.433Z" fill="#344952"/>
          </g>
        </g>
      </g>
      <g id="Group_2763" data-name="Group 2763">
        <g id="Group_2762" data-name="Group 2762">
          <g id="Group_2761" data-name="Group 2761">
            <path id="Path_3915" data-name="Path 3915" d="M121.736,235.15H114.6a.5.5,0,1,1,0-1h7.136a.5.5,0,0,1,0,1Z" fill="#344952"/>
          </g>
        </g>
      </g>
    </g>
  </g>
</svg>